<?xml version="1.0" encoding="UTF-8"?>
<!-- Generator: Adobe Illustrator 19.2.0, SVG Export Plug-In . SVG Version: 6.00 Build 0)  -->
<svg version="1.1" id="svg2" inkscape:output_extension="org.inkscape.output.svg.inkscape" inkscape:version="0.46" sodipodi:docname="Wikimedia_Austria_logo.svg" sodipodi:version="0.32" xmlns:cc="http://creativecommons.org/ns#" xmlns:dc="http://purl.org/dc/elements/1.1/" xmlns:inkscape="http://www.inkscape.org/namespaces/inkscape" xmlns:rdf="http://www.w3.org/1999/02/22-rdf-syntax-ns#" xmlns:sodipodi="http://sodipodi.sourceforge.net/DTD/sodipodi-0.dtd" xmlns:svg="http://www.w3.org/2000/svg" xmlns="http://www.w3.org/2000/svg" xmlns:xlink="http://www.w3.org/1999/xlink" x="0px" y="0px" viewBox="0 0 342.4 351.4" style="enable-background:new 0 0 342.4 351.4;" xml:space="preserve">
<style type="text/css">
	.st0{fill:#9B1915;}
	.st1{fill:#2D945D;}
	.st2{fill:#016097;}
	.st3{fill:#494849;}
	.st4{fill:#666766;}
</style>
<sodipodi:namedview bordercolor="#666666" borderopacity="1.0" gridtolerance="10.0" guidetolerance="10.0" id="base" inkscape:current-layer="svg2" inkscape:cx="109.51444" inkscape:cy="206.36229" inkscape:pageopacity="0.0" inkscape:pageshadow="2" inkscape:window-height="785" inkscape:window-width="1049" inkscape:window-x="1440" inkscape:window-y="0" inkscape:zoom="1.0421116" objecttolerance="10.0" pagecolor="#ffffff" showgrid="false">
	</sodipodi:namedview>
<defs>
	
	
		<inkscape:perspective id="perspective23" inkscape:persp3d-origin="229.94299 : 158.0125 : 1" inkscape:vp_x="0 : 237.01875 : 1" inkscape:vp_y="0 : 1000 : 0" inkscape:vp_z="459.88599 : 237.01875 : 1" sodipodi:type="inkscape:persp3d">
		</inkscape:perspective>
</defs>
<path id="path7" class="st0" d="M128.7,42.6c0-23.5,19.1-42.6,42.6-42.6c23.5,0,42.6,19.1,42.6,42.6c0,23.5-19.1,42.6-42.6,42.6  C147.7,85.2,128.7,66.2,128.7,42.6L128.7,42.6z"/>
<path id="path9" class="st1" d="M222.9,68.3c15.9,14.2,26,34.9,26,57.9c0,39.7-29.9,72.5-68.4,77v-92.4L222.9,68.3L222.9,68.3z"/>
<path id="path11" class="st1" d="M93.7,126.2c0-23,10-43.7,26-57.9l42.4,42.4v92.4C123.6,198.6,93.7,165.9,93.7,126.2L93.7,126.2z"/>
<path id="path13" class="st2" d="M42.4,128.1c0-37.7,16.2-71.6,42-95.2l23.6,23.6c-19.2,17.3-31.2,42.3-31.2,70.2  c0,52.2,42.4,94.6,94.6,94.6c52.2,0,94.6-42.3,94.6-94.6c0-27.8-12-52.9-31.2-70.2l23.6-23.6c25.8,23.6,42,57.5,42,95.2  c0,71.2-57.7,128.9-128.9,128.9C100.1,257,42.4,199.3,42.4,128.1L42.4,128.1z"/>
<path id="path17" class="st3" d="M17,314.1L0,274.5h5.3h5.4l8.8,21.9h0l10.1-21.9h3.8h3.8l10.1,22h0l8.8-22h5.3h5.4l-17,39.6h-2.1  h-2.1l-12.2-24.7h0l-12.2,24.7h-2.1H17z"/>
<path id="path19" class="st3" d="M71.5,274.5h4.9h4.9v39h-4.9h-4.9L71.5,274.5L71.5,274.5z"/>
<path id="path21" class="st3" d="M100,313.5h-4.9h-4.9v-39h4.9h4.9v18.5h0l12.5-18.5h5.5h5.5l-13.6,18.7l17.7,20.3h-6.2h-6.2  l-15.2-18.6h0L100,313.5L100,313.5z"/>
<path id="path23" class="st3" d="M131.7,274.5h4.9h4.9v39h-4.9h-4.9L131.7,274.5L131.7,274.5z"/>
<path id="path25" class="st3" d="M160.2,313.5h-4.9h-4.9v-39h4.4h4.4l12.2,14.1h0l12.2-14.1h4.4h4.4v39h-4.9h-4.9v-24h0l-10.4,12  h-0.8h-0.8l-10.4-12h0V313.5L160.2,313.5z"/>
<path id="path27" class="st3" d="M201.1,313.5v-39h28.8v3.5v3.5h-19v8.4h17.8v3.5v3.5h-17.8v9.5h19v3.5v3.5H201.1z"/>
<path id="path29" class="st3" d="M237.3,274.5h4.9h10c8,0,14,1.6,18,4.9c4,3.2,6,8.1,6,14.6v0.1c0,6.5-1.9,11.4-5.7,14.6  c-3.8,3.3-9.6,4.9-17.3,4.9h-10.9h-4.9L237.3,274.5L237.3,274.5z M247.1,306.3h6c4.3,0,7.5-1,9.6-3.1c2.1-2,3.2-5.1,3.2-9.2  c0-4.1-1.1-7.2-3.4-9.3c-2.3-2.1-5.7-3.1-10.3-3.1h-5.1V306.3L247.1,306.3z"/>
<path id="path31" class="st3" d="M283.5,274.5h4.9h4.9v39h-4.9h-4.9V274.5z"/>
<path id="path33" class="st3" d="M314.5,273.9h5.7h5.7l16.5,39.6h-5.3h-5.3l-2.9-7.4h-17.3l-2.9,7.4h-5.3H298L314.5,273.9z   M314.2,299.1h12l-6-15.3h0L314.2,299.1z"/>
<g id="g3243">
</g>
<path id="text2396" class="st4" d="M69.5,331.6c-1.9,0-3.3,0.7-4.4,2.1c-1,1.4-1.6,3.3-1.6,5.9c0,2.5,0.5,4.5,1.6,5.8  c1,1.4,2.5,2.1,4.4,2.1c1.9,0,3.3-0.7,4.4-2.1c1-1.4,1.6-3.3,1.6-5.8c0-2.5-0.5-4.5-1.6-5.9C72.8,332.3,71.4,331.6,69.5,331.6   M69.5,327.1c3.8,0,6.8,1.1,9,3.3c2.2,2.2,3.3,5.2,3.3,9.1c0,3.9-1.1,6.9-3.3,9.1c-2.2,2.2-5.2,3.3-9,3.3c-3.8,0-6.8-1.1-9-3.3  c-2.2-2.2-3.3-5.2-3.3-9.1c0-3.9,1.1-6.9,3.3-9.1C62.6,328.2,65.6,327.1,69.5,327.1 M64.4,321.1h3.8v3.9h-3.8V321.1 M70.7,321.1h3.8  v3.9h-3.8V321.1 M103,328.3v5.1c-1.3-0.6-2.6-1-3.8-1.3c-1.2-0.3-2.4-0.4-3.5-0.4c-1.5,0-2.6,0.2-3.3,0.6s-1.1,1-1.1,1.9  c0,0.6,0.2,1.1,0.7,1.5c0.5,0.4,1.3,0.7,2.6,0.9l2.6,0.5c2.7,0.5,4.5,1.3,5.7,2.4c1.1,1.1,1.7,2.6,1.7,4.6c0,2.6-0.8,4.6-2.4,5.9  c-1.6,1.3-3.9,1.9-7.1,1.9c-1.5,0-3-0.1-4.6-0.4c-1.5-0.3-3.1-0.7-4.6-1.3V345c1.5,0.8,3,1.4,4.4,1.8c1.4,0.4,2.8,0.6,4.1,0.6  c1.3,0,2.4-0.2,3.1-0.7c0.7-0.4,1.1-1.1,1.1-1.9c0-0.7-0.2-1.3-0.7-1.7c-0.5-0.4-1.4-0.8-2.9-1.1l-2.4-0.5c-2.4-0.5-4.1-1.3-5.2-2.4  c-1.1-1.1-1.6-2.6-1.6-4.5c0-2.4,0.8-4.2,2.3-5.5c1.5-1.3,3.7-1.9,6.6-1.9c1.3,0,2.7,0.1,4,0.3C100.1,327.6,101.5,327.9,103,328.3   M107.1,327.6h22v4.7h-7.9v19.2h-6.2v-19.2h-7.9L107.1,327.6 M132.3,327.6h16.6v4.7h-10.5v4.4h9.8v4.7h-9.8v5.5h10.8v4.7h-17V327.6   M163.5,338.1c1.3,0,2.2-0.2,2.8-0.7c0.6-0.5,0.8-1.3,0.8-2.4c0-1.1-0.3-1.9-0.8-2.3c-0.6-0.5-1.5-0.7-2.8-0.7h-2.6v6.1H163.5   M160.9,342.4v9h-6.2v-23.9h9.4c3.1,0,5.4,0.5,6.9,1.6c1.5,1.1,2.2,2.7,2.2,5c0,1.6-0.4,2.9-1.2,3.9c-0.8,1-1.9,1.8-3.4,2.2  c0.8,0.2,1.6,0.6,2.3,1.3c0.7,0.7,1.3,1.7,2,3.1l3.3,6.8h-6.6l-2.9-5.9c-0.6-1.2-1.2-2-1.8-2.4c-0.6-0.4-1.4-0.7-2.4-0.7  L160.9,342.4 M188.7,338.1c1.3,0,2.2-0.2,2.8-0.7c0.6-0.5,0.8-1.3,0.8-2.4c0-1.1-0.3-1.9-0.8-2.3c-0.6-0.5-1.5-0.7-2.8-0.7h-2.6v6.1  H188.7 M186.1,342.4v9h-6.2v-23.9h9.4c3.1,0,5.4,0.5,6.9,1.6c1.5,1.1,2.2,2.7,2.2,5c0,1.6-0.4,2.9-1.2,3.9c-0.8,1-1.9,1.8-3.4,2.2  c0.8,0.2,1.6,0.6,2.3,1.3c0.7,0.7,1.4,1.7,2,3.1l3.3,6.8h-6.6l-2.9-5.9c-0.6-1.2-1.2-2-1.8-2.4c-0.6-0.4-1.4-0.7-2.4-0.7  L186.1,342.4 M205.1,327.6h16.6v4.7h-10.5v4.4h9.8v4.7h-9.8v5.5h10.8v4.7h-17V327.6 M227.5,327.6h6.2v23.9h-6.2V327.6 M258.7,350.1  c-1.1,0.6-2.3,1-3.5,1.3c-1.2,0.3-2.5,0.4-3.8,0.4c-4,0-7.1-1.1-9.5-3.3c-2.3-2.2-3.5-5.2-3.5-9.1c0-3.8,1.2-6.8,3.5-9.1  c2.3-2.2,5.5-3.3,9.5-3.3c1.3,0,2.6,0.1,3.8,0.4c1.2,0.3,2.4,0.7,3.5,1.3v4.9c-1.1-0.8-2.3-1.3-3.4-1.7c-1.1-0.4-2.3-0.5-3.5-0.5  c-2.2,0-3.9,0.7-5.2,2.1c-1.3,1.4-1.9,3.3-1.9,5.8c0,2.5,0.6,4.4,1.9,5.8c1.3,1.4,3,2.1,5.2,2.1c1.2,0,2.4-0.2,3.5-0.5  c1.1-0.4,2.2-0.9,3.4-1.7V350.1 M263.8,327.6h6.2v9.1h9.1v-9.1h6.2v23.9H279v-10.1H270v10.1h-6.2V327.6"/>
</svg>